<svg width="114" height="114" viewBox="0 0 114 114" fill="none" xmlns="http://www.w3.org/2000/svg">
<g filter="url(#filter0_b_2_117)">
<rect width="113.598" height="113.598" rx="16.8294" fill="white" fill-opacity="0.85"/>
<path d="M36.2991 44.3384C36.3933 43.9257 36.4692 43.5077 36.5847 43.1004C37.1195 41.2231 38.2255 39.7114 39.6503 38.4156C40.9135 37.2674 42.35 36.3843 43.8828 35.6424C44.3053 35.4382 44.4625 35.4927 44.6818 35.9086C44.9011 36.3245 45.1043 36.7083 45.3172 37.1081C45.5578 37.5593 45.5065 37.7207 45.0305 37.9484C43.5191 38.6733 42.1008 39.5392 40.9231 40.7494C39.8588 41.8421 39.0802 43.0854 38.9112 44.6474C38.7593 46.0201 39.17 47.226 39.9252 48.3358C40.9477 49.84 42.3725 50.8877 43.9363 51.7569C46.4071 53.1307 49.0769 53.9132 51.8579 54.3494C54.2178 54.7248 56.613 54.8292 58.9966 54.6605C61.9744 54.4467 64.8721 53.8641 67.652 52.7362C68.0895 52.5598 68.359 52.3588 68.5259 51.8638C68.9356 50.645 70.2886 50.0089 71.5465 50.3371C72.1587 50.4999 72.6896 50.8818 73.0385 51.4102C73.3873 51.9387 73.5298 52.5768 73.4387 53.2034C73.2761 54.4232 72.1744 55.3629 70.9037 55.38C70.3953 55.3799 69.8971 55.2369 69.4661 54.9674C69.4031 54.9352 69.3342 54.9162 69.2636 54.9114C69.193 54.9066 69.1221 54.9162 69.0554 54.9396C66.8525 55.8845 64.5358 56.5382 62.1638 56.8843C61.0941 57.0446 60.0192 57.1163 58.9463 57.2317C58.842 57.2479 58.7388 57.2704 58.6372 57.2991H54.8743C54.7468 57.2648 54.6171 57.2398 54.486 57.2242C52.639 57.1224 50.8054 56.8505 49.0084 56.4117C45.8744 55.6527 42.9244 54.4799 40.3637 52.471C38.6106 51.0994 37.2276 49.4412 36.5911 47.2549C36.4735 46.8486 36.3954 46.4306 36.2991 46.0201V44.3384Z" fill="#0D2D3A"/>
<path d="M56.805 16.2992C59.5775 16.3122 62.2559 17.3052 64.3662 19.1023C66.4765 20.8995 67.8826 23.385 68.3356 26.1189C68.7784 28.782 68.2137 31.2762 67.1505 33.6945C65.8017 36.7628 63.886 39.4676 61.6708 41.9543C60.4129 43.3666 59.0587 44.6944 57.7185 46.0297C57.1559 46.5899 56.466 46.5771 55.8916 46.0468C52.4741 42.8887 49.4524 39.4077 47.2212 35.296C46.2446 33.4956 45.4841 31.6055 45.2167 29.5656C44.7782 26.2268 45.6328 23.2195 47.7614 20.6098C49.6696 18.2727 52.1554 16.9022 55.1332 16.4403C55.6841 16.3505 56.2467 16.343 56.805 16.2992ZM63.2014 27.8647C63.195 26.1735 62.5233 24.5527 61.3313 23.3525C60.1392 22.1522 58.5226 21.4689 56.8307 21.4501C53.3191 21.4309 50.4023 24.326 50.3937 27.839C50.3851 31.3521 53.2945 34.259 56.805 34.2536C60.3155 34.2483 63.196 31.3606 63.2014 27.8647Z" fill="#0D2D3A"/>
<path d="M56.929 50.9529C55.7289 50.8813 54.7181 50.8332 53.7084 50.7541C53.2463 50.7177 53.1564 50.5231 53.272 50.0827C53.396 49.608 53.4998 49.1269 53.5789 48.6426C53.6335 48.309 53.81 48.1775 54.1245 48.2075C56.6488 48.4463 59.1936 48.3547 61.6942 47.9349C63.3393 47.6612 64.9512 47.2538 66.4177 46.4189C66.7296 46.2398 67.0215 46.028 67.2884 45.787C67.7996 45.3252 67.8125 44.9318 67.2819 44.4892C66.8672 44.1574 66.4224 43.865 65.9535 43.6157C65.608 43.4211 65.2229 43.295 64.8571 43.1389C64.4592 42.9678 64.3918 42.7358 64.6539 42.3905C64.9844 41.9565 65.332 41.5352 65.6615 41.098C65.823 40.8842 66.023 40.8211 66.2583 40.9173C67.4349 41.4005 68.5505 41.9864 69.4041 42.9721C70.5218 44.255 70.5454 45.9271 69.4618 47.2378C68.7398 48.1113 67.7954 48.6779 66.7781 49.1333C64.8903 49.979 62.8911 50.4162 60.8492 50.6461C59.4876 50.799 58.1195 50.8631 56.929 50.9529Z" fill="#0D2D3A"/>
<path d="M77.2991 44.5682C77.2991 46.8305 76.7525 48.3625 75.8016 49.763C75.5534 50.1318 75.3031 50.1222 74.9994 49.7897C74.6821 49.4318 74.345 49.092 73.9896 48.7719C73.719 48.5346 73.7073 48.3325 73.8474 48.0097C74.1469 47.3212 74.4892 46.6263 74.6325 45.8993C74.9598 44.2603 74.3576 42.8363 73.3714 41.5577C72.1884 40.0256 70.6214 38.9811 68.9175 38.1216C67.9815 37.6501 67.9794 37.6554 68.4896 36.72C68.655 36.4164 68.8155 36.1102 68.9709 35.8016C69.1025 35.5397 69.3154 35.4563 69.5667 35.5771C72.4451 36.9509 74.9823 38.7213 76.4701 41.671C77.0188 42.7486 77.3034 43.9054 77.2991 44.5682Z" fill="#0D2D3A"/>
<path d="M43.333 45.2835C43.3566 43.9375 43.9331 43.0384 44.8145 42.3916C45.5782 41.8282 46.451 41.4112 47.2842 40.9451C47.5581 40.7911 47.7859 40.8906 47.9731 41.1439C48.2736 41.5513 48.5956 41.9436 48.9058 42.3435C49.216 42.7433 49.1475 42.9528 48.6919 43.1656C48.0651 43.4543 47.45 43.7686 46.8318 44.0743C46.7846 44.0996 46.7402 44.1297 46.6992 44.1641C45.6894 44.9029 45.6916 45.3754 46.6895 46.1163C46.8703 46.251 46.9869 46.235 47.1783 46.127C47.6412 45.8553 48.1775 45.7353 48.7121 45.7841C49.2466 45.8329 49.7524 46.0479 50.1583 46.399C50.5642 46.75 50.8498 47.2194 50.975 47.7411C51.1001 48.2628 51.0585 48.8106 50.856 49.3074C50.6535 49.8043 50.3003 50.2252 49.846 50.5109C49.3917 50.7967 48.8592 50.9329 48.3235 50.9005C47.7877 50.868 47.2756 50.6686 46.8591 50.3301C46.4426 49.9916 46.1428 49.5312 46.0018 49.0136C45.9763 48.8906 45.9242 48.7748 45.8489 48.6743C45.7737 48.5738 45.6772 48.491 45.5664 48.432C44.3128 47.6718 43.4068 46.6616 43.333 45.2835Z" fill="#0D2D3A"/>
<path d="M60.6384 27.8551C60.6378 28.6156 60.4112 29.3588 59.9875 29.9904C59.5638 30.622 58.962 31.1137 58.2584 31.4031C57.5548 31.6925 56.7811 31.7666 56.0353 31.616C55.2895 31.4653 54.6053 31.0968 54.0693 30.557C53.5334 30.0173 53.1698 29.3306 53.0247 28.5841C52.8796 27.8376 52.9596 27.0648 53.2544 26.3637C53.5492 25.6627 54.0457 25.0649 54.6808 24.6462C55.3159 24.2274 56.0612 24.0066 56.822 24.0117C57.3255 24.012 57.824 24.1118 58.2888 24.3054C58.7536 24.499 59.1755 24.7826 59.5302 25.1398C59.8849 25.497 60.1655 25.9208 60.3556 26.3868C60.5458 26.8528 60.6419 27.3518 60.6384 27.8551Z" fill="#0D2D3A"/>
<path d="M25.8293 87.7621C25.8293 86.8781 26.0287 86.0851 26.4273 85.3831C26.826 84.6724 27.3677 84.1177 28.0523 83.7191C28.7457 83.3204 29.5127 83.1211 30.3533 83.1211C31.3413 83.1211 32.2037 83.3594 32.9403 83.8361C33.677 84.3127 34.2143 84.9887 34.5523 85.8641H33.1353C32.884 85.3181 32.52 84.8977 32.0433 84.6031C31.5753 84.3084 31.012 84.1611 30.3533 84.1611C29.7207 84.1611 29.153 84.3084 28.6503 84.6031C28.1477 84.8977 27.7533 85.3181 27.4673 85.8641C27.1813 86.4014 27.0383 87.0341 27.0383 87.7621C27.0383 88.4814 27.1813 89.1141 27.4673 89.6601C27.7533 90.1974 28.1477 90.6134 28.6503 90.9081C29.153 91.2027 29.7207 91.3501 30.3533 91.3501C31.012 91.3501 31.5753 91.2071 32.0433 90.9211C32.52 90.6264 32.884 90.2061 33.1353 89.6601H34.5523C34.2143 90.5267 33.677 91.1984 32.9403 91.6751C32.2037 92.1431 31.3413 92.3771 30.3533 92.3771C29.5127 92.3771 28.7457 92.1821 28.0523 91.7921C27.3677 91.3934 26.826 90.8431 26.4273 90.1411C26.0287 89.4391 25.8293 88.6461 25.8293 87.7621ZM42.8133 88.4641C42.8133 88.6894 42.8003 88.9277 42.7743 89.1791H37.0803C37.1237 89.8811 37.362 90.4314 37.7953 90.8301C38.2373 91.2201 38.7703 91.4151 39.3943 91.4151C39.9057 91.4151 40.3303 91.2981 40.6683 91.0641C41.015 90.8214 41.2577 90.5007 41.3963 90.1021H42.6703C42.4797 90.7867 42.0983 91.3457 41.5263 91.7791C40.9543 92.2037 40.2437 92.4161 39.3943 92.4161C38.7183 92.4161 38.1117 92.2644 37.5743 91.9611C37.0457 91.6577 36.6297 91.2287 36.3263 90.6741C36.023 90.1107 35.8713 89.4607 35.8713 88.7241C35.8713 87.9874 36.0187 87.3417 36.3133 86.7871C36.608 86.2324 37.0197 85.8077 37.5483 85.5131C38.0857 85.2097 38.701 85.0581 39.3943 85.0581C40.0703 85.0581 40.6683 85.2054 41.1883 85.5001C41.7083 85.7947 42.107 86.2021 42.3843 86.7221C42.6703 87.2334 42.8133 87.8141 42.8133 88.4641ZM41.5913 88.2171C41.5913 87.7664 41.4917 87.3807 41.2923 87.0601C41.093 86.7307 40.82 86.4837 40.4733 86.3191C40.1353 86.1457 39.7583 86.0591 39.3423 86.0591C38.7443 86.0591 38.233 86.2497 37.8083 86.6311C37.3923 87.0124 37.154 87.5411 37.0933 88.2171H41.5913ZM45.5578 86.3321C45.7658 85.9247 46.0605 85.6084 46.4418 85.3831C46.8318 85.1577 47.3042 85.0451 47.8588 85.0451V86.2671H47.5468C46.2208 86.2671 45.5578 86.9864 45.5578 88.4251V92.2991H44.3748V85.1751H45.5578V86.3321ZM48.7824 88.7241C48.7824 87.9874 48.9298 87.3461 49.2244 86.8001C49.5191 86.2454 49.9264 85.8164 50.4464 85.5131C50.9751 85.2097 51.5774 85.0581 52.2534 85.0581C53.1288 85.0581 53.8481 85.2704 54.4114 85.6951C54.9835 86.1197 55.3605 86.7091 55.5425 87.4631H54.2685C54.1471 87.0297 53.9088 86.6874 53.5535 86.4361C53.2068 86.1847 52.7734 86.0591 52.2534 86.0591C51.5774 86.0591 51.0314 86.2931 50.6154 86.7611C50.1994 87.2204 49.9914 87.8747 49.9914 88.7241C49.9914 89.5821 50.1994 90.2451 50.6154 90.7131C51.0314 91.1811 51.5774 91.4151 52.2534 91.4151C52.7734 91.4151 53.2068 91.2937 53.5535 91.0511C53.9001 90.8084 54.1385 90.4617 54.2685 90.0111H55.5425C55.3518 90.7391 54.9704 91.3241 54.3985 91.7661C53.8264 92.1994 53.1114 92.4161 52.2534 92.4161C51.5774 92.4161 50.9751 92.2644 50.4464 91.9611C49.9264 91.6577 49.5191 91.2287 49.2244 90.6741C48.9298 90.1194 48.7824 89.4694 48.7824 88.7241ZM56.6789 88.7111C56.6789 87.9831 56.8263 87.3461 57.1209 86.8001C57.4156 86.2454 57.8186 85.8164 58.3299 85.5131C58.8499 85.2097 59.4263 85.0581 60.0589 85.0581C60.6829 85.0581 61.2246 85.1924 61.6839 85.4611C62.1433 85.7297 62.4856 86.0677 62.7109 86.4751V85.1751H63.9069V92.2991H62.7109V90.9731C62.4769 91.3891 62.1259 91.7357 61.6579 92.0131C61.1986 92.2817 60.6613 92.4161 60.0459 92.4161C59.4133 92.4161 58.8413 92.2601 58.3299 91.9481C57.8186 91.6361 57.4156 91.1984 57.1209 90.6351C56.8263 90.0717 56.6789 89.4304 56.6789 88.7111ZM62.7109 88.7241C62.7109 88.1867 62.6026 87.7187 62.3859 87.3201C62.1693 86.9214 61.8746 86.6181 61.5019 86.4101C61.1379 86.1934 60.7349 86.0851 60.2929 86.0851C59.8509 86.0851 59.4479 86.1891 59.0839 86.3971C58.7199 86.6051 58.4296 86.9084 58.2129 87.3071C57.9963 87.7057 57.8879 88.1737 57.8879 88.7111C57.8879 89.2571 57.9963 89.7337 58.2129 90.1411C58.4296 90.5397 58.7199 90.8474 59.0839 91.0641C59.4479 91.2721 59.8509 91.3761 60.2929 91.3761C60.7349 91.3761 61.1379 91.2721 61.5019 91.0641C61.8746 90.8474 62.1693 90.5397 62.3859 90.1411C62.6026 89.7337 62.7109 89.2614 62.7109 88.7241ZM69.3771 85.0451C70.2438 85.0451 70.9458 85.3094 71.4831 85.8381C72.0204 86.3581 72.2891 87.1121 72.2891 88.1001V92.2991H71.1191V88.2691C71.1191 87.5584 70.9414 87.0167 70.5861 86.6441C70.2308 86.2627 69.7454 86.0721 69.1301 86.0721C68.5061 86.0721 68.0078 86.2671 67.6351 86.6571C67.2711 87.0471 67.0891 87.6147 67.0891 88.3601V92.2991H65.9061V85.1751H67.0891V86.1891C67.3231 85.8251 67.6394 85.5434 68.0381 85.3441C68.4454 85.1447 68.8918 85.0451 69.3771 85.0451ZM77.3285 92.4161C76.6612 92.4161 76.0545 92.2644 75.5085 91.9611C74.9712 91.6577 74.5465 91.2287 74.2345 90.6741C73.9312 90.1107 73.7795 89.4607 73.7795 88.7241C73.7795 87.9961 73.9355 87.3547 74.2475 86.8001C74.5682 86.2367 75.0015 85.8077 75.5475 85.5131C76.0935 85.2097 76.7045 85.0581 77.3805 85.0581C78.0565 85.0581 78.6675 85.2097 79.2135 85.5131C79.7595 85.8077 80.1885 86.2324 80.5005 86.7871C80.8212 87.3417 80.9815 87.9874 80.9815 88.7241C80.9815 89.4607 80.8169 90.1107 80.4875 90.6741C80.1669 91.2287 79.7292 91.6577 79.1745 91.9611C78.6199 92.2644 78.0045 92.4161 77.3285 92.4161ZM77.3285 91.3761C77.7532 91.3761 78.1519 91.2764 78.5245 91.0771C78.8972 90.8777 79.1962 90.5787 79.4215 90.1801C79.6555 89.7814 79.7725 89.2961 79.7725 88.7241C79.7725 88.1521 79.6599 87.6667 79.4345 87.2681C79.2092 86.8694 78.9145 86.5747 78.5505 86.3841C78.1865 86.1847 77.7922 86.0851 77.3675 86.0851C76.9342 86.0851 76.5355 86.1847 76.1715 86.3841C75.8162 86.5747 75.5302 86.8694 75.3135 87.2681C75.0969 87.6667 74.9885 88.1521 74.9885 88.7241C74.9885 89.3047 75.0925 89.7944 75.3005 90.1931C75.5172 90.5917 75.8032 90.8907 76.1585 91.0901C76.5139 91.2807 76.9039 91.3761 77.3285 91.3761ZM85.059 92.4161C84.5129 92.4161 84.0233 92.3251 83.5899 92.1431C83.1566 91.9524 82.8143 91.6924 82.5629 91.3631C82.3116 91.0251 82.1729 90.6394 82.1469 90.2061H83.3689C83.4036 90.5614 83.5683 90.8517 83.8629 91.0771C84.1663 91.3024 84.5606 91.4151 85.0459 91.4151C85.4966 91.4151 85.852 91.3154 86.112 91.1161C86.372 90.9167 86.502 90.6654 86.502 90.3621C86.502 90.0501 86.3633 89.8204 86.086 89.6731C85.8086 89.5171 85.3796 89.3654 84.7989 89.2181C84.2703 89.0794 83.8369 88.9407 83.4989 88.8021C83.1696 88.6547 82.8836 88.4424 82.6409 88.1651C82.4069 87.8791 82.2899 87.5064 82.2899 87.0471C82.2899 86.6831 82.3983 86.3494 82.6149 86.0461C82.8316 85.7427 83.1393 85.5044 83.5379 85.3311C83.9366 85.1491 84.3916 85.0581 84.9029 85.0581C85.6916 85.0581 86.3286 85.2574 86.8139 85.6561C87.2993 86.0547 87.5593 86.6007 87.5939 87.2941H86.411C86.3849 86.9214 86.2333 86.6224 85.9559 86.3971C85.6873 86.1717 85.3233 86.0591 84.8639 86.0591C84.4393 86.0591 84.1013 86.1501 83.8499 86.3321C83.5986 86.5141 83.4729 86.7524 83.4729 87.0471C83.4729 87.2811 83.5466 87.4761 83.6939 87.6321C83.8499 87.7794 84.0406 87.9007 84.2659 87.9961C84.4999 88.0827 84.8206 88.1824 85.2279 88.2951C85.7393 88.4337 86.1553 88.5724 86.476 88.7111C86.7966 88.8411 87.0696 89.0404 87.2949 89.3091C87.529 89.5777 87.6503 89.9287 87.6589 90.3621C87.6589 90.7521 87.5506 91.1031 87.3339 91.4151C87.1173 91.7271 86.8096 91.9741 86.411 92.1561C86.0209 92.3294 85.5703 92.4161 85.059 92.4161Z" fill="#1E1E1E"/>
</g>
<defs>
<filter id="filter0_b_2_117" x="-15" y="-15" width="143.598" height="143.598" filterUnits="userSpaceOnUse" color-interpolation-filters="sRGB">
<feFlood flood-opacity="0" result="BackgroundImageFix"/>
<feGaussianBlur in="BackgroundImageFix" stdDeviation="7.5"/>
<feComposite in2="SourceAlpha" operator="in" result="effect1_backgroundBlur_2_117"/>
<feBlend mode="normal" in="SourceGraphic" in2="effect1_backgroundBlur_2_117" result="shape"/>
</filter>
</defs>
</svg>
